<?xml version="1.0" encoding="UTF-8"?><svg id="a" xmlns="http://www.w3.org/2000/svg" viewBox="0 0 1620 2160"><rect width="1620" height="2160" fill="#fff"/><rect x="100" y="200" width="1420" height="1" fill="#000"/><rect x="100" y="250" width="1420" height="1" fill="#ccc"/><rect x="100" y="300" width="1420" height="1" fill="#000"/><rect x="100" y="350" width="1420" height="1" fill="#ccc"/><rect x="100" y="400" width="1420" height="1" fill="#000"/><rect x="100" y="450" width="1420" height="1" fill="#ccc"/><rect x="100" y="500" width="1420" height="1" fill="#000"/><rect x="100" y="550" width="1420" height="1" fill="#ccc"/><rect x="100" y="600" width="1420" height="1" fill="#000"/><rect x="100" y="650" width="1420" height="1" fill="#ccc"/><rect x="100" y="700" width="1420" height="1" fill="#000"/><rect x="100" y="750" width="1420" height="1" fill="#ccc"/><rect x="100" y="800" width="1420" height="1" fill="#000"/><rect x="100" y="850" width="1420" height="1" fill="#ccc"/><rect x="100" y="900" width="1420" height="1" fill="#000"/><rect x="100" y="950" width="1420" height="1" fill="#ccc"/><rect x="100" y="1000" width="1420" height="1" fill="#000"/><rect x="100" y="1050" width="1420" height="1" fill="#ccc"/><rect x="100" y="1100" width="1420" height="1" fill="#000"/><rect x="100" y="1150" width="1420" height="1" fill="#ccc"/><rect x="100" y="1200" width="1420" height="1" fill="#000"/><rect x="100" y="1250" width="1420" height="1" fill="#ccc"/><rect x="100" y="1300" width="1420" height="1" fill="#000"/><rect x="100" y="1350" width="1420" height="1" fill="#ccc"/><rect x="100" y="1400" width="1420" height="1" fill="#000"/><rect x="100" y="1450" width="1420" height="1" fill="#ccc"/><rect x="100" y="1500" width="1420" height="1" fill="#000"/><rect x="100" y="1550" width="1420" height="1" fill="#ccc"/><rect x="100" y="1600" width="1420" height="1" fill="#000"/><rect x="100" y="1650" width="1420" height="1" fill="#ccc"/><rect x="100" y="1700" width="1420" height="1" fill="#000"/><rect x="100" y="1750" width="1420" height="1" fill="#ccc"/><rect x="100" y="1800" width="1420" height="1" fill="#000"/><rect x="100" y="1850" width="1420" height="1" fill="#ccc"/><rect x="100" y="1900" width="1420" height="1" fill="#000"/><rect x="100" y="1950" width="1420" height="1" fill="#ccc"/><rect x="100" y="2000" width="1420" height="1" fill="#000"/></svg>
